/* XPM */
static char *_2338bd4464f478a92d3b36caa1ca331WmZbYZIfAoOekOVR[] = {
/* columns rows colors chars-per-pixel */
"64 64 237 2 ",
"   c #64686F",
".  c #585C63",
"X  c #656971",
"o  c #6E7279",
"O  c #5A5D64",
"+  c #6E7179",
"@  c #62656D",
"#  c #595C64",
"$  c #6B6E75",
"%  c #686B73",
"&  c #6F737A",
"*  c #62666D",
"=  c #70737B",
"-  c #6C6F77",
";  c #6E7178",
":  c #555960",
">  c #71757C",
",  c #696C74",
"<  c #61656C",
"1  c #6C7078",
"2  c #6F727A",
"3  c #6B6F76",
"4  c #5F626A",
"5  c #696D73",
"6  c #565A61",
"7  c #696D74",
"8  c #5F6269",
"9  c #666970",
"0  c #6F737B",
"q  c #5F636A",
"w  c #6C7077",
"e  c #62666E",
"r  c #75787F",
"t  c #71747B",
"y  c #6A6D75",
"u  c #61656D",
"i  c #60636B",
"p  c #6D7078",
"a  c #63676F",
"s  c #6D7179",
"d  c #656970",
"f  c #686C74",
"g  c #73777E",
"h  c #5B5E65",
"j  c #54585F",
"k  c #63676E",
"l  c #595D65",
"z  c #63666E",
"x  c #797C83",
"c  c #73767E",
"v  c #6B6F77",
"b  c #656870",
"n  c #6D7077",
"m  c #72767D",
"M  c #676A72",
"N  c #676B72",
"B  c #5D6168",
"V  c #787B82",
"C  c #5E6269",
"Z  c #6B6E76",
"A  c #676A71",
"S  c #60646B",
"D  c #787C83",
"F  c #71747C",
"G  c #666971",
"H  c #74787F",
"J  c #767980",
"K  c #72757C",
"L  c #696C73",
"P  c #64676F",
"I  c #757980",
"U  c #6D7178",
"Y  c #585B63",
"T  c #5E6168",
"R  c #666A71",
"E  c #72757D",
"W  c #777B82",
"Q  c #686C73",
"!  c #777A81",
"~  c #73767D",
"^  c #74777E",
"/  c #6C6F76",
"(  c #62656C",
")  c #70737A",
"_  c #6A6D74",
"`  c #70747A",
"'  c #61646C",
"]  c #70747B",
"[  c #767981",
"{  c #595D64",
"}  c #5B5F66",
"|  c #676B73",
" . c #71757B",
".. c #5C5F67",
"X. c #7D8188",
"o. c #6F7279",
"O. c #5B5E66",
"+. c #5D6068",
"@. c #7B7E85",
"#. c #646870",
"$. c #5C5F66",
"%. c #7E8188",
"&. c #696D75",
"*. c #6E727A",
"=. c #666A72",
"-. c #5D6067",
";. c #575B63",
":. c #5E6169",
">. c #65686F",
",. c #5A5E65",
"<. c #73777F",
"1. c #6A6E75",
"2. c #7B7E86",
"3. c #686B72",
"4. c #63666D",
"5. c #6A6E76",
"6. c #80838A",
"7. c #7A7E85",
"8. c #7E8288",
"9. c #666A70",
"0. c #767A80",
"q. c #7C7F86",
"w. c #797D84",
"e. c #868990",
"r. c #787B83",
"t. c #65696F",
"y. c #7A7D84",
"u. c #4F5259",
"i. c #6D7177",
"p. c #777A82",
"a. c #7D8087",
"s. c #84878D",
"d. c #61646B",
"f. c #5C6067",
"g. c #64676E",
"h. c #60636A",
"j. c #83868D",
"k. c #5C6068",
"l. c #82858C",
"z. c #75787E",
"x. c #72767E",
"c. c #808389",
"v. c #7E8187",
"b. c #7F8289",
"n. c #7B7F86",
"m. c #767A81",
"M. c #5F636B",
"N. c #575A61",
"B. c #74787E",
"V. c #7B7E84",
"C. c #60646C",
"Z. c #74777F",
"A. c #55585F",
"S. c #54575E",
"D. c #595C63",
"F. c #7C8087",
"G. c #51545B",
"H. c #7E8289",
"J. c #4D5158",
"K. c #7D8086",
"L. c #4D5057",
"P. c #757880",
"I. c #575B62",
"U. c #6F7379",
"Y. c #80848B",
"T. c #84888F",
"R. c #50535A",
"E. c #585C64",
"W. c #797C84",
"Q. c #72767C",
"!. c #71757D",
"~. c #7D8187",
"^. c #7F838A",
"/. c #62666C",
"(. c #52555C",
"). c #5D6169",
"_. c #84878E",
"`. c #81848B",
"'. c #60646A",
"]. c #5A5D65",
"[. c #5A5E66",
"{. c #8C8F96",
"}. c #74777D",
"|. c #64686E",
" X c #6C7076",
".X c #80848A",
"XX c #767A82",
"oX c #50545B",
"OX c #757981",
"+X c #8F9299",
"@X c #777A80",
"#X c #575A62",
"$X c #70747C",
"%X c #797D83",
"&X c #7C7F87",
"*X c #5A5D63",
"=X c #787B81",
"-X c #61656B",
";X c #777B83",
":X c #5E6268",
">X c #7A7D85",
",X c #585B62",
"<X c #7A7D83",
"1X c #858990",
"2X c #5D6167",
"3X c #575B61",
"4X c #75797F",
"5X c #5B5F67",
"6X c #565961",
"7X c #5E626A",
"8X c #4E5158",
"9X c #6F7278",
"0X c #555860",
"qX c #81858C",
"wX c #565A60",
"eX c #7B7F85",
"rX c #707379",
"tX c #84888E",
"yX c #7A7E84",
"uX c #6E7278",
"iX c #53575E",
"pX c #5F6369",
"aX c #83878E",
"sX c #73777D",
"dX c #85888F",
"fX c #5B5F65",
"gX c #787C82",
"hX c #686C72",
"jX c #53565E",
"kX c #494D54",
"lX c #676B71",
"zX c #51555C",
"xX c #63676D",
"cX c #6B6F75",
"vX c #50545A",
"bX c #76797F",
"nX c white",
/* pixels */
"  . X o O + @ # $ % & * + = - ; : > , < , 1 + 2 3 4 5 6 3 7 , < 8 X 9 7 0 q w e < r t y u i p w a - X s = d f g h j p 2 k > 7 l ",
"  z g x c v q b n i * m M 8 m % z N B V - C Z A S D w X n F C A * G q M 9 p k H 7 q z b * J c % w a e w C 7 0 K L P k < & S P + ",
"I U Y d p T R w d u & E k - W A 3 M Q ! U ~ ; J & r N d q # > G ^ k b / M 2 V R   ( m ) * C H ; k R p _ i ` ' N m <   C Q m % ] ",
"U P Q [ { } p |  .N A d ..X.o.o W O.m N z U d i +.3 i z @.@ #.$.%.o.S z &.) K p *.=.P Z ] , ' ; W -.) *.s k D 8 ;.:._ 8 b f > 3 ",
"y >.  = ,.A P * + M <.1.n g p P 7 ( ] ~ ! i 2.1.>.z b 3.Q [ & 4.1.  n L , Q q * X d _ | 1.G 5.U y * w Q C F 5.> N Y < x U &   c ",
"U B ,.Z w d 6 % 1.w E < t W 6.Q Q L Q M w A V 2 G o c 1.7.U Q # U @.8.9.0.J } y _ k ] 3.,.N F q.w.Q o p 7 d $ V p u V M e.r.' Q ",
"N T 3 N * y ^ ; t.  { 1 P = p k 4.y.g k U ' . M u.^ g @ > 7 >.i.V 7., p.R H d 1.r & / ^ , W d o.o 5.U ; -.,.* q @ U w.3 - a.o P ",
"1.> ; s.o.6 1.1.w d.>.S ! c 5.B f.x 3.a 4.g.m h.g.b M 2 n & u * j.1.h { h.z 7 c C K d { H < $.9 3.h +.n 7 + . $ q.u Z y.y @.3 ; ",
"k.:.o l.3 o.E ] + -.3.b R > & 1.$ d 2 ( g.3 7 g.r ] 4.3 9 I z.G [ < Z q 8 a., 4 x.R -.S o D 9 Z U E 2 M 3.~ S w C - @ c.g > m y ",
"@ h.a q 9 > Q _ 2.w X.v.b.k g.Q Z _ L * r $ n.d Z g D k R k k 7 ) o.Q % B ! & 1.p _ 5.#.a Q :.m o Q 7 t 3.+ m.S - p h.b P $ >., ",
"M.N _ :.N.N { - Q - ] g.i a.- d C U U 3 G ; E ' @ H m.B.& 1.z n r ~ [ } N y b C S k 1.% < 3 9 I i A ) I V 9 N _ N Q :.w w O w.& ",
"L ) 7 g.V.$ } G f , P 1.o.H f.C.C ..* b L A G M u N ^ ~ M 3 o.>.L - I M 7 d C 3 ( P 9 * 3 7 3.Q S =.U R d k N ; C.4.m f > Z / Z.",
"m Z N Q - =.> D @ $ * R f ' A.q.w j N 3 9 / R =.. d.3.d +.R * L ) f.+.z / P 9 y.N c ] S.% N S   Q u q o K { M D.7 &   k ^ + b I ",
"V m.p ^ V ^ W m E 3 e & 3.T $ 2 - U % F F.> Q K ; ( K t $ G.-.r K @ * R X y 2 d 7 k y b h.] - Q w g.L @.H.  Q t 9 ' i ] y J.a % ",
"E K W ~ ; F   % 8 x 7 ( 3 % ( K.  z * B L.y % % w 1.N P.A * ] 2 r n & 3 * 1.r / k g.n / M M.3 M ! m K _ 7 5.N 7 2 O.U > r 9 p #.",
"L 3 m W d m d z 7 ..* ' n C 3.H.+ q D F I.Q o w K C.d Z A J U q   A o.O.@ - 7 o W 1.@ r R $.* &.o <   q.> k B b Q 1.% * E d & 1.",
"&.3 N % i > > b p Q / S J T K % Q f 2 N [ * S.3 ~ 1 +   1.2 - 3.% p q z ) U % U 2 U   ; { A g.4 Q n d B Z.1.>.t / F.Q 7 E f 1.- ",
"@   R * R U.o Y.% T.= R.b S g.; p ~ + ] o f < n.% 4.3 k 7 f m.< o & ] =.t 6 { K N E.% $._ U b m.7.W.> *.% 3.o w 6.Q.k w R y & = ",
"p j [ i , U 2 o o.q R Q * & ^ k   K + g.} _ N 4.k.Z } k q V / @ w > 1.. k q q b y !.N : -.N :.= b.a P u m.1.~.>.R K U X.; E ,.B ",
"& S ] 3 h 9 4./ 1.I.9 & k $ N ,.U _ Q 7 d % ; P ^ & R 3 3.n 3 1.4.b.N & k 2 A   d.^./.q - ( y.c U x / (.  t 3 L o &.s.m 3 w   E ",
"7 / $ > u & N U < ).$ L B + 1.R _ ^ 5.( y 7.K U 6.! & 3.R 9   A k B p._.q w   d F o ] H w = f ] 1.P l < k J 9 G i 3 ~ 7 n } 2 g ",
"x k :.`.b o.X I.N W S ] n U @ & . R y ,.K | 9 } f V.> * W n '.I i 9 * e n H n X R < % ].< 5.} ! 2 C F ! ) 3 [.* Q w N ..G } & * ",
") h.; Q Z ] ' _ ; x a k 3 9 -.{.r @ 7   U b }.3 E R d.Q d = Z 1 g.; d U w N ^ m.z 3.$ P R |.L A S v o.T U O w I Z.3 k >. X{ Q w ",
"/ $ .Xq o G 7.p C.1.XX1.T G % < d @ :.1.8 o H Y K g m U 1.B &.i m Q $ = ) w.! 8 , U z U Z C N > k   R 7 D W.z 3.@.8   7 y.x oXW.",
"v @ F ] 4 y @.$ ! X.OX1.] 7.= -.] W F $ k P   K ' Q y q $ ,.  K ) 1 o >.O ~   U.< _ $ 4 i - ].4.H.3 J Z ( x.% ] +X1.3 > 4.> 1.E ",
"R 7 N.K p N @X^ !.o.& 7.M Q Q p.C 8 H -.#XK - = b {   O 5.m.8.Q F   k t & 4.y > , D 4 Q N - s ..p G N ] f.f d U n d D = s ; Y o.",
"q b.S m > , ; > b Q p.R 6 o o N o K N V Q $X& m 8 { M 3 k p D.y.H | } + 3.f.d p w Q p Z ' d.=.L _ { %X7 p C K D & G X P &XE g.x ",
"v P g & r r o w q o.} % / m Z , G : @ 7 q ' #.n n g @ >.e q ' @.@.o w   i X m p.h.I.7 Q V J > ^ 7 Q I + p >.A @.I n ( N v ' n z ",
"r.1 R b M Z.3 k < o.~ M ..E m.Z.9 / > d 3 A -.M % + q A / ] 1.R ] $ H q k - Z O.*X% W y.~  .g.o Z G   P } < 7 m   E G T =X] ,.=.",
"n * 2 ,.#X&.4.^ f./ ~ S < 3 % ( k % Z k U x o :.= t ^ g.z.I O ,.p S C M $ y.w N.-Xw , 7 U * ( H T C % W   N D y y ;XP t a.^ } C ",
"v >.t < / & D.g.e w d Q F 1.t , 1 # L 9 N -.Q > / Q F.R w w f.n 3 d.( *.b L h.7 E   Z a :XD - ( A * 9 ^ m i O L = P m #.  ^ '   ",
"L _ G I >XF d.] g   ' - e z , ; -.< H W ; 7 R y S = B ,XS +.#.b * B.X Q * p Z.w.9 d $ F d Z.3.y ] P g o Q 8 P  X~ d M q o.> N ' ",
"6 7 & ]   = n y.x g R o.] E ( <X] % <.N z A w ( r $ ,.d @.] 6.S t.g.f.K C.U y #XB ~ / 3 Q , ^ U w.] U R % q 3 g 3 w 7 #Xk 7 / | ",
"] b & q K XXC ].2 m o.#XN o 1.c Q R , _ k @ = A Q.f.S   !.w , ,X8 , O.c % :.w R f 2 < R U ; + G H %X% >.g C H 3 . G ' < J M D n ",
"^.- o ; L &.F g.W.> R )   4 #.k.B h.Z k D o.m.m.] | Z 3 P + = o 4.P P 3 F d.m.P 9 % C   1.Q 7 c < % U 4.; p ! g F 0 S >.C k J B ",
"M i [ 1X/ m d - u b < c R O y y O.1.F C C = Z d w w v 9 ,.] @ /   n F.N.b @.c w ~ M.3.r %.w 3.1.] *.w.J 3 G 3 O.w P k Z S H ) % ",
"R ).g ; I.2Xo.p U v w = < N.1.> M 7 w S 1.w + N #.I @.c A w V 7 | & $X3 w U $ B % d.$ 7.H b y 3 - * } -.- #X: R J $.L y % Q Q d ",
"> h   H J R / * N P 4.G ].$ W p *.1.1.q U 3 ; M w X U m D G 3 3 3Xc , , 4X5X6X= > M R * Q < U U F T ' d n Q [ m ] o m.U d N y ..",
"i T 4.] d.].e O.>.d.k 3 W @ D.; w n w s N g.k u 7 = g / , C., , : w U A ) = w G ..N $ g.o.n , 1.N b = |   d w f.A #.q C 7 3.Z A ",
"7X#.  G Z z o ].-.k C P = 6 t 7XC S w T 9 =.M Q k _ * T b p Q $.4 m e >.] > _ =.3.7 I p d ] b p * z S F B e G R g.- M * Z.&.O d.",
"  Q P #.7 7 ; J M ^ d 5.m k 5.m >._ ] G 1.q.3 ~ 7   ) g.G ,.3 6Xd.v #.  I =.S N 4X! U $ L C ;   J g b m H m.> R.. 2 g ] N 1.O ,.",
"1.3 d - r.M.g.^.O.n ~ 3 3.D , ^ & = Q 1XL ; ! / $Xw % 3 4 1., f.g ( =.2 w #.; ; o.#.I.f.4 H L w > @ & >.i 7 3 7Xq a Q ] & :.=.=.",
"R w J z n   k *.U e c z Q o.C 1._.U o E _ L 1. .k I 3 O Z U   { Z.7 B r 7 k 3 8X9XT.i.*.@ X 3 4.1.- b 5.% b z @ 6 } Z ! * m *.m ",
"n 2 Z.w.) ( f % -.n 9 A +.V n f.7XQ 1.{ ] ^ g 2.T 4.U - k x _ N X 4.h > g % E 4.] t ] ,.B a V g.r > 9 _ @.Z.% m Z 3 y X.8.%.J ,X",
"2 E N N U 1.1 G C V $ 3.f / N G ].g.& ) 9 y n >.M o.C.| k 1.I.= G R J i w m P %.+.0Xo ! , 7 c k q !.A 8 ; ) k o.+ K M.N ) &X, k ",
"3.k , R.+.p q ( ] h w Q w a N = 1.I t f.J X.( q U + 5.  k U N 7 N _ m S D m = $.c 1 _   ,X7.r Q G._ L i F q ' qX]   N wX7 c S 8 ",
"Q w $ A N 1.n.9 D 7 : 4   t B T * ,X2 3.& W.y.P.g R o , C.S eXC h 1 | > > & :.T ( c / } * & 6.3 t ' , f P S.T 1.< G 9 ~ k _ r N ",
"< 4.y + :.N + >.~ ~ @ z 1.S G O.} L g } @ L 3 w y.w = / L & m w % k m.@ 3.& t F.^ | 7.- F k d b a e F N s   n 9XT q y Z % ) - , ",
"k 3 m p.r.p 7 d.1.  < ; P % N / 1.m.W c I n T ( x ] , U f f.m K $ G :.% q 7.D G I x 8 i ~ Z :.m.2 o & b 7 2 = m a K n.:.1.8 a #.",
"-.rX4.( 4.U I 9 $ n [ I eX- 4.$ E *.B Q p b 3 4.@._ f s C.M Z 1.d y.p + 2 > 3.O.4.F q.2 < 1.* G V 3.% $ v c a 1.%   b *.i Z C ' ",
"=.K.5 Q +.Q _.:.  ' * $.( Y 5., tXx < 9 yXC uXP a 3 q * y A U y U = ! >X~ M J . ] p Z.3.G & . B :.  D i.d 3.m.Q R #.P - - a   y ",
"3 7 E $ 3 R m ~.] ' k ^ C.C Z.L -   ) o o N U z b k I.w q 8 A N R u p :.iX7 m.,., N k 9 w M >.q ] b Q.@.< Z , , 1.3 2   @ ).n d ",
"pX4 :.r o.3 8 > & k &.p.< +.1.@ R y +.b.K ' k.N P R @ v & S G 7 _ f =.] 7 k $   / * N.7 > R B & N +.k k.N , M P R s +.;   Q + * ",
"x h., 3.<   } u + c 3 2 z >.d k ) M U 3 < I w @ G J I } E.7.n ' I d V aX' 7 I ' 9 b M w F.& b./ Q N 2 ' . 7 @.S n &.4 3 x 4 q d ",
"L w.k y & h.Q % 1.F S - D m.+.n.9 B 7 < b.m._ ! z &.S >.@ ^ k >.y ~ 0.w :.R = a n g.I.L k % _ Z T =.Y P B ) , 9 1.- = w 3 N n k ",
"M 9 % v   * & f.C ] $ 4 i y w = ! k k $ +., + 7 Q   y   k sXa.4.- 7.+.o.D 4 M o ^ d ] X f.o 2 U q o.e.Q M Z.; ].l U & b o._ % L ",
"3 q y $   > L v o.< 2 3.k O f.k J u N & K U H 3 >.g w & 4 i r < j @ J > w - ] i m.> k s & :.| 1.7 % S #.W + O o.dXo.| R S ,XP o.",
"7 y $ N g.J 4.E - fXC 5 M :.* * a.w >.g.].E w w & 3 < y D./ i m.3.R [ a E t g.* & h.) + G F.W + n I b T o g Z.m eXQ y t C ! V O ",
"< Q R i T N L > +.+ + r.> @ f.R k d.>.> 7XgXm., m & Z f.w } { X.* - p m hXb.G d z B E b 4 / y 3 i ; o.- q r.$ jXZ 7 =.M -X7   >X",
"N z S , f.4 = w   k & a _ k 1.; 1.R ,.I $ 3 L H r Z.L 1.d k.k kXP _ = 1.r 6.  M z 4 ,.d./ S k g 1._ + 3 u - 2 < f.B iX~ X.[ lX7 ",
"7 ) t i h z , ( G 7 & y . b P C ] r =.f X.>.8 n.^ w h.!.d #.R $.R K P.n.2 & _   ..T b ,.y %.Q W.U , j.$ C Z #.] Z 3 k b 6 1.y.5.",
"@ 4., z zX$ > w > z M A 2 I o.o y xX< - 3 C B R p h o.~ W - q N J u A E d } > V 1.4.| % U *.i o s V V I.* R y i d w ~ | R S g.=.",
"N ' q b T i y M n.~ I cXR % y R < r Z.vX} i b 3 *.| ! n - < T   w 7 ] 3 G I.Z % p Z.I o b :.o.* } + d 2 ,., 7 ..> m ~ k.< N ~ Q ",
"R O.$.].3.m.z f.3 L 2 o g.Q d.4.b o i } * k - & P Q K V > P X   T W k bXD P a * d * &.R < ).%.3 R 1.U ^...* Q _ < @ } _ 7 < ) t "
};
