/* XPM */
static char * money_xpm[] = {
"64 64 439 2",
"  	c #64686F",
". 	c #585C63",
"+ 	c #656971",
"@ 	c #6E7279",
"# 	c #5A5D64",
"$ 	c #6E7179",
"% 	c #62656D",
"& 	c #595C64",
"* 	c #6B6E75",
"= 	c #686B73",
"- 	c #6F737A",
"; 	c #62666D",
"> 	c #70737B",
", 	c #6C6F77",
"' 	c #6E7178",
") 	c #555960",
"! 	c #71757C",
"~ 	c #696C74",
"{ 	c #61656C",
"] 	c #6C7078",
"^ 	c #6F727A",
"/ 	c #6B6F76",
"( 	c #5F626A",
"_ 	c #696D73",
": 	c #565A61",
"< 	c #696D74",
"[ 	c #5F6269",
"} 	c #666970",
"| 	c #6F737B",
"1 	c #5F636A",
"2 	c #6C7077",
"3 	c #62666E",
"4 	c #75787F",
"5 	c #71747B",
"6 	c #6A6D75",
"7 	c #61656D",
"8 	c #60636B",
"9 	c #6D7078",
"0 	c #63676F",
"a 	c #6D7179",
"b 	c #656970",
"c 	c #686C74",
"d 	c #73777E",
"e 	c #5B5E65",
"f 	c #54585F",
"g 	c #63676E",
"h 	c #595D65",
"i 	c #63666E",
"j 	c #797C83",
"k 	c #73767E",
"l 	c #6B6F77",
"m 	c #656870",
"n 	c #6D7077",
"o 	c #72767D",
"p 	c #676A72",
"q 	c #676B72",
"r 	c #5D6168",
"s 	c #787B82",
"t 	c #5E6269",
"u 	c #6B6E76",
"v 	c #676A71",
"w 	c #60646B",
"x 	c #787C83",
"y 	c #71747C",
"z 	c #666971",
"A 	c #74787F",
"B 	c #767980",
"C 	c #72757C",
"D 	c #696C73",
"E 	c #64676F",
"F 	c #757980",
"G 	c #6D7178",
"H 	c #585B63",
"I 	c #5E6168",
"J 	c #666A71",
"K 	c #72757D",
"L 	c #777B82",
"M 	c #686C73",
"N 	c #777A81",
"O 	c #73767D",
"P 	c #74777E",
"Q 	c #6C6F76",
"R 	c #62656C",
"S 	c #70737A",
"T 	c #6A6D74",
"U 	c #70747A",
"V 	c #61646C",
"W 	c #70747B",
"X 	c #767981",
"Y 	c #595D64",
"Z 	c #5B5F66",
"` 	c #676B73",
" .	c #71757B",
"..	c #5C5F67",
"+.	c #7D8188",
"@.	c #6F7279",
"#.	c #5B5E66",
"$.	c #5D6068",
"%.	c #7B7E85",
"&.	c #646870",
"*.	c #5C5F66",
"=.	c #7E8188",
"-.	c #696D75",
";.	c #6E727A",
">.	c #666A72",
",.	c #5D6067",
"'.	c #575B63",
").	c #5E6169",
"!.	c #65686F",
"~.	c #5A5E65",
"{.	c #73777F",
"].	c #6A6E75",
"^.	c #7B7E86",
"/.	c #686B72",
"(.	c #63666D",
"_.	c #6A6E76",
":.	c #80838A",
"<.	c #7A7E85",
"[.	c #7E8288",
"}.	c #666A70",
"|.	c #767A80",
"1.	c #7C7F86",
"2.	c #797D84",
"3.	c #868990",
"4.	c #787B83",
"5.	c #65696F",
"6.	c #7A7D84",
"7.	c #4F5259",
"8.	c #6D7177",
"9.	c #777A82",
"0.	c #7D8087",
"a.	c #84878D",
"b.	c #61646B",
"c.	c #5C6067",
"d.	c #64676E",
"e.	c #60636A",
"f.	c #83868D",
"g.	c #5C6068",
"h.	c #82858C",
"i.	c #75787E",
"j.	c #72767E",
"k.	c #808389",
"l.	c #7E8187",
"m.	c #7F8289",
"n.	c #7B7F86",
"o.	c #767A81",
"p.	c #5F636B",
"q.	c #575A61",
"r.	c #74787E",
"s.	c #7B7E84",
"t.	c #60646C",
"u.	c #74777F",
"v.	c #55585F",
"w.	c #54575E",
"x.	c #595C63",
"y.	c #7C8087",
"z.	c #51545B",
"A.	c #7E8289",
"B.	c #4D5158",
"C.	c #7D8086",
"D.	c #4D5057",
"E.	c #757880",
"F.	c #575B62",
"G.	c #6F7379",
"H.	c #80848B",
"I.	c #84888F",
"J.	c #50535A",
"K.	c #585C64",
"L.	c #797C84",
"M.	c #72767C",
"N.	c #71757D",
"O.	c #7D8187",
"P.	c #7F838A",
"Q.	c #62666C",
"R.	c #52555C",
"S.	c #5D6169",
"T.	c #84878E",
"U.	c #81848B",
"V.	c #667F68",
"W.	c #609051",
"X.	c #68965D",
"Y.	c #729C69",
"Z.	c #649358",
"`.	c #6D9963",
" +	c #6C9861",
".+	c #669459",
"++	c #609152",
"@+	c #68955C",
"#+	c #6A975F",
"$+	c #619153",
"%+	c #6F9A64",
"&+	c #68965E",
"*+	c #68955B",
"=+	c #629254",
"-+	c #69965E",
";+	c #749E6A",
">+	c #6E9A64",
",+	c #649357",
"'+	c #709B67",
")+	c #66945A",
"!+	c #709B66",
"~+	c #67955C",
"{+	c #659458",
"]+	c #6A9760",
"^+	c #729C68",
"/+	c #639356",
"(+	c #6E9964",
"_+	c #6B9462",
":+	c #5A5E66",
"<+	c #659557",
"[+	c #6ABE30",
"}+	c #69B738",
"|+	c #6C7076",
"1+	c #80848A",
"2+	c #739F6A",
"3+	c #8DC972",
"4+	c #B4D9A7",
"5+	c #A1D18E",
"6+	c #70C234",
"7+	c #7ECD3E",
"8+	c #7ECE3E",
"9+	c #6CBF31",
"0+	c #A9D498",
"a+	c #82C561",
"b+	c #77C839",
"c+	c #79C93B",
"d+	c #80C45D",
"e+	c #ABD59B",
"f+	c #6CB93F",
"g+	c #50545B",
"h+	c #749F6A",
"i+	c #B7DAAB",
"j+	c #FFFFFF",
"k+	c #DDECD8",
"l+	c #99E550",
"m+	c #6EC133",
"n+	c #EBF4E8",
"o+	c #A2D18F",
"p+	c #8AD846",
"q+	c #8EDB49",
"r+	c #9DCF88",
"s+	c #EFF6EC",
"t+	c #6ABE2F",
"u+	c #6BB83D",
"v+	c #8F9299",
"w+	c #719D66",
"x+	c #A5D293",
"y+	c #DFEEDA",
"z+	c #C6E3BA",
"A+	c #7BCB3C",
"B+	c #84D242",
"C+	c #8DDA48",
"D+	c #6DC032",
"E+	c #A4D291",
"F+	c #ABD59A",
"G+	c #F1F7EF",
"H+	c #C5E0BB",
"I+	c #82C562",
"J+	c #81D040",
"K+	c #94E04D",
"L+	c #91DE4B",
"M+	c #99D379",
"N+	c #D2E7CA",
"O+	c #6AB83B",
"P+	c #6C9A60",
"Q+	c #7CCC3D",
"R+	c #6BBF31",
"S+	c #69BE2E",
"T+	c #87D544",
"U+	c #90DD4A",
"V+	c #69B739",
"W+	c #7C7F87",
"X+	c #6C9A61",
"Y+	c #78C93A",
"Z+	c #8FDC49",
"`+	c #9ED08A",
" @	c #DEEDD9",
".@	c #E5F1E2",
"+@	c #FAFCF9",
"@@	c #ECF5E9",
"#@	c #BADBAE",
"$@	c #A1D18F",
"%@	c #94E14D",
"&@	c #92DF4C",
"*@	c #76C738",
"=@	c #6AB83A",
"-@	c #6B995F",
";@	c #7FCE3F",
">@	c #98E44F",
",@	c #68BE2B",
"'@	c #F8FBF7",
")@	c #8CC970",
"!@	c #DFEDDA",
"~@	c #B5D9A8",
"{@	c #85D343",
"]@	c #93DF4C",
"^@	c #69B839",
"/@	c #787B81",
"(@	c #575A62",
"_@	c #669658",
":@	c #69BE2C",
"<@	c #E5F1E1",
"[@	c #A6D395",
"}@	c #98CD81",
"|@	c #EFF6ED",
"1@	c #CEE5C7",
"2@	c #AAD499",
"3@	c #777B83",
"4@	c #619251",
"5@	c #7A7D85",
"6@	c #F2F8F0",
"7@	c #FCFEFC",
"8@	c #B2D8A4",
"9@	c #8BC86F",
"0@	c #75C14A",
"a@	c #6C995F",
"b@	c #ABD59C",
"c@	c #767A82",
"d@	c #649455",
"e@	c #7BC355",
"f@	c #7CC357",
"g@	c #6DBF37",
"h@	c #F8FBF8",
"i@	c #AFD7A1",
"j@	c #71C042",
"k@	c #6E9B63",
"l@	c #6AB83C",
"m@	c #858990",
"n@	c #67975A",
"o@	c #98E450",
"p@	c #F6FAF5",
"q@	c #FDFEFD",
"r@	c #8FCA74",
"s@	c #6FBF3D",
"t@	c #A4D292",
"u@	c #B4D9A6",
"v@	c #6BBE30",
"w@	c #92DF4B",
"x@	c #5D6167",
"y@	c #6D9A61",
"z@	c #6BBE32",
"A@	c #6ABE31",
"B@	c #6BBE33",
"C@	c #68B737",
"D@	c #7BCC3C",
"E@	c #5A5D65",
"F@	c #669659",
"G@	c #FCFDFB",
"H@	c #DAEBD5",
"I@	c #6CC031",
"J@	c #7ACA3B",
"K@	c #72C044",
"L@	c #74C147",
"M@	c #EBF4E9",
"N@	c #6DBF38",
"O@	c #89D745",
"P@	c #8EDC49",
"Q@	c #9CCF87",
"R@	c #ECF4E9",
"S@	c #5E626A",
"T@	c #B8DAAB",
"U@	c #DDEDD8",
"V@	c #A2D190",
"W@	c #9DCF89",
"X@	c #69B83A",
"Y@	c #74C148",
"Z@	c #6FC234",
"`@	c #7EC45A",
" #	c #71C041",
".#	c #6DC133",
"+#	c #70C03F",
"@#	c #7EC45B",
"##	c #6BB93E",
"$#	c #679659",
"%#	c #64706B",
"&#	c #6D8272",
"*#	c #6D8170",
"=#	c #637967",
"-#	c #728576",
";#	c #647967",
">#	c #687E6C",
",#	c #6E8271",
"'#	c #607763",
")#	c #6A7F6E",
"!#	c #809185",
"~#	c #6D8271",
"{#	c #718475",
"]#	c #6A7E6D",
"^#	c #697E6C",
"/#	c #708473",
"(#	c #647A67",
"_#	c #738778",
":#	c #6B806E",
"<#	c #5D745E",
"[#	c #6B7F6E",
"}#	c #657B68",
"|#	c #5C745E",
"1#	c #738577",
"2#	c #697E6D",
"3#	c #5F7662",
"4#	c #738677",
"5#	c #536C53",
"6#	c #6E8270",
"7#	c #809285",
"8#	c #6D816F",
"9#	c #637966",
"0#	c #667C6A",
"a#	c #647966",
"b#	c #6C806F",
"c#	c #667B69",
"d#	c #687D6C",
"e#	c #66796A",
"f#	c #585B62",
"g#	c #555860",
"h#	c #81858C",
"i#	c #565A60",
"j#	c #7B7F85",
"k#	c #6F7278",
"l#	c #707379",
"m#	c #84888E",
"n#	c #7A7E84",
"o#	c #6E7278",
"p#	c #53575E",
"q#	c #5F6369",
"r#	c #83878E",
"s#	c #73777D",
"t#	c #85888F",
"u#	c #5B5F65",
"v#	c #787C82",
"w#	c #686C72",
"x#	c #53565E",
"y#	c #61656B",
"z#	c #494D54",
"A#	c #676B71",
"B#	c #51555C",
"C#	c #63676D",
"D#	c #6B6F75",
"E#	c #50545A",
"F#	c #76797F",
"  . + @ # $ % & * = - ; $ > , ' ) ! ~ { ~ ] $ ^ / ( _ : / < ~ { [ + } < | 1 2 3 { 4 5 6 7 8 9 2 0 , + a > b c d e f 9 ^ g ! < h ",
"  i d j k l 1 m n 8 ; o p [ o = i q r s , t u v w x 2 + n y t v ; z 1 p } 9 g A < 1 i m ; B k = 2 0 3 2 t < | C D E g { - w E $ ",
"F G H b 9 I J 2 b 7 - K g , L v / p M N G O ' B - 4 q b 1 & ! z P g m Q p ^ s J   R o S ; t A ' g J 9 T 8 U V q o {   t M o = W ",
"G E M X Y Z 9 `  .q v b ..+.@.@ L #.o q i G b 8 $./ 8 i %.% &.*.=.@.w i -.S C 9 ;.>.E u W ~ V ' L ,.S ;.a g x [ '.).T [ m c ! / ",
"6 !.  > ~.v E ; $ p {.].n d 9 E < R W O N 8 ^.].!.i m /.M X - (.].  n D ~ M 1 ; + b T ` ].z _.G 6 ; 2 M t y _.! q H { j G -   k ",
"G r ~.u 2 b : = ].2 K { 5 L :.M M D M p 2 v s ^ z @ k ].<.G M & G %.[.}.|.B Z 6 T g W /.~.q y 1.2.M @ 9 < b * s 9 7 s p 3.4.V M ",
"q I / q ; 6 P ' 5.  Y ] E > 9 g (.6.d g G V . p 7.P d % ! < !.8.s <.~ 9.J A b ].4 - Q P ~ L b @.@ _.G ' ,.~.; 1 % G 2./ , 0.@ E ",
"].! ' a.@.: ].].2 b.!.w N k _.r c.j /.0 (.d.o e.d.m p ^ n - 7 ; f.].e Y e.i < k t C b Y A { *.} /.e $.n < $ . * 1.7 u 6.6 %./ ' ",
"g.).@ h./ @.K W $ ,./.m J ! - ].* b ^ R d./ < d.4 W (./ } F i.z X { u 1 [ 0.~ ( j.J ,.w @ x } u G K ^ p /.O w 2 t , % k.d ! o 6 ",
"% e.0 1 } ! M T ^.2 +.l.m.g d.M u T D ; 4 * n.b u d x g J g g < S @.M = r N - ].9 T _.&.0 M ).o @ M < 5 /.$ o.w , 9 e.m E * !.~ ",
"p.q T ).q.q Y , M , W d.8 0., b t G G / z ' K V % A o.r.- ].i n 4 O X Z q 6 m t w g ].= { / } F 8 v S F s } q T q M ).2 2 # 2.- ",
"D S < d.s.* Z z c ~ E ].@.A c.t.t ..; m D v z p 7 q P O p / @.!.D , F p < b t / R E } ; / < /.M w >.G J b g q ' t.(.o c ! u Q u.",
"o u q M , >.! x % * ; J c V v.1.2 f q / } Q J >.. b./.b $.J ; D S c.$.i Q E } 6.q k W w.= q w   M 7 1 @ C Y p x.< -   g P $ m F ",
"s o.9 P s P L o K / 3 - /.I * ^ , G = y y.! M C ' R C 5 * z.,.4 C % ; J + 6 ^ b < g 6 m e.W , M 2 d.D %.A.  M 5 } V 8 W 6 B.0 = ",
"K C L O ' y   = [ j < R / = R C.  i ; r D.6 = = 2 ].q E.v ; W ^ 4 n - / ; ].4 Q g d.n Q p p./ p N o C T < _.q < ^ #.G ! 4 } 9 &.",
"D / o L b o b i < ..; V n t /.A.$ 1 x y F.M @ 2 C t.b u v B G 1   v @.#.% , < @ L ].% 4 J *.; -.@ {   1.! g r m M ].= ; K b - ].",
"-./ q = 8 ! ! m 9 M Q w B I C = M c ^ q X ; w./ O ] $   ].^ , /.= 9 1 i S G = G ^ G   ' Y v d.( M n b r u.].!.5 Q y.M < K c ]., ",
"%   J ; J G.@ H.= I.> J.m w d.' 9 O $ W @ c { n.= (./ g < c o.{ @ - W >.5 : Y C q K.= *.T G m o.<.L.! ;.= /.@ 2 :.M.g 2 J 6 - > ",
"9 f X 8 ~ G ^ @ @.1 J M ; - P g   C $ d.Z T q (.g.u Z g 1 s Q % 2 ! ].. g 1 1 m 6 N.q ) ,.q ).> m.0 E 7 o.].O.!.J C G +.' K ~.r ",
"- w W / e } (.Q ].F.} - g * q ~.G T M < b = ' E P - J / /.n / ].(.m.q - g ^ v   b.P.Q.1 , R 6.k G j Q R.  5 / D @ -.a.o / 2   K ",
"< Q * ! 7 - q G { S.* D r $ ].J T P _.R 6 <.C G :.N - /.J }   v g r 9.T.1 2   b y @ W A 2 > c W ].E h { g B } z 8 / O < n Z ^ d ",
"j g ).U.m @.V.W.X.Y.Z.`. + +.+`.++@+#+$+%+&+*+=+-+;+>+.+Y. +,+'+Z.*+.+)+ +!+ +~+@+{+-+$+{+]+=+^+`./+(+^+`._+:+; M 2 q ..z Z - ; ",
"S e.' M u W <+[+[+[+[+[+[+[+[+[+[+[+[+[+[+[+[+[+[+[+[+[+[+[+[+[+[+[+[+[+[+[+[+[+[+[+[+[+[+[+[+[+[+[+[+[+[+}+2 F u./ g !.|+Y M 2 ",
"Q * 1+1 @ z 2+[+3+4+5+[+6+7+7+7+7+7+7+7+7+7+7+7+8+9+[+[+[+0+4+a+[+[+[+b+7+7+7+7+7+7+7+7+7+7+7+c+[+d+4+e+[+f+i /.%.[   < 6.j g+L.",
"l % y W ( 6 h+[+i+j+k+[+c+l+l+l+l+l+l+l+l+l+l+l+l+m+[+[+[+n+j+o+[+[+[+p+l+l+l+l+l+l+l+l+l+l+l+q+[+r+j+s+t+u+= W v+]./ ! (.! ].K ",
"J < q.C 9 q w+[+x+y+z+A+B+l+l+l+l+l+l+l+l+l+l+C+C+D+t+E+F+G+j+H+F+I+[+J+C+K+l+l+l+l+l+l+l+l+l+L+A+M+y+N+[+O+b G n b x > a ' H @.",
"1 m.w o ! ~ P+[+[+[+Q+l+l+l+l+l+l+l+l+l+l+l+l+R+[+[+S+G+j+j+j+j+j+e+[+[+[+T+l+l+l+l+l+l+l+l+l+l+l+U+[+[+[+V+C x - z + E W+K d.j ",
"l E d - 4 4 X+[+6+Y+B+l+l+l+l+l+l+l+l+l+l+Z+Z+R+t+`+5+ @.@+@j+@@.@#@$@a+[+J+Z+%@l+l+l+l+l+l+l+l+l+&@Y+*@[+=@v %.F n R q l V n i ",
"4.] J m p u.-@[+;@l+l+l+l+l+l+l+l+l+l+l+>@[+[+[+,@'@j+)@[+n+j+o+[+!@j+~@[+[+[+{@l+l+l+l+l+l+l+l+l+l+l+]@[+^@< o   K z I /@W ~.>.",
"n ; ^ ~.(@-._@[+;@l+l+l+l+l+l+l+l+l+l+l+>@[+[+[+:@<@n+[@}@|@j+o+[+1@n+2@[+[+[+{@l+l+l+l+l+l+l+l+l+l+l+]@[+O+x 6 6 3@E 5 0.P Z t ",
"l !.5 { Q - 4@[+;@l+l+l+l+l+l+l+l+l+l+l+>@[+[+[+[+[+S+G+j+j+j+o+[+[+[+[+[+[+[+{@l+l+l+l+l+l+l+l+l+l+l+]@[+^@# D > E o &.  P V   ",
"D T z F 5@y <+[+;@l+l+l+l+l+l+l+l+l+l+l+>@[+[+[+[+[+S+<@6@7@j+8@9@0@[+[+[+[+[+{@l+l+l+l+l+l+l+l+l+l+l+]@[+V+E |+O b p 1 @.! q V ",
": < - W   > a@[+;@l+l+l+l+l+l+l+l+l+l+l+>@[+[+[+[+[+[+S+S+n+j+j+j+b@[+[+[+[+[+{@l+l+l+l+l+l+l+l+l+l+l+]@[+^@/ d / 2 < (@g < Q ` ",
"W m - 1 C c@d@[+;@l+l+l+l+l+l+l+l+l+l+l+>@[+[+[+[+e@f@g@[+n+j++@h@i@f@j@[+[+[+{@l+l+l+l+l+l+l+l+l+l+l+]@[+V+A / . z V { B p x n ",
"P., @ ' D -.k@[+;@l+l+l+l+l+l+l+l+l+l+l+>@[+[+[+,@h@j+)@[+n+j+5+,@y+j+~@[+[+[+{@l+l+l+l+l+l+l+l+l+l+l+]@[+l@N d y | w !.t g B r ",
"p 8 X m@Q o n@[+8+o@l+l+l+l+l+l+l+l+l+l+>@R+R+[+,@p@q@r@s@n+j+t@s@ @q@u@[+v@R+{@l+l+l+l+l+l+l+l+l+l+o@w@[+=@/ #.2 E g u w A S = ",
"J S.d ' F.x@y@[+[+[+Q+l+l+l+l+l+l+l+l+l+l+l+l+R+[+z@A@G+j+j+j+j+j+b@B@A@[+T+l+l+l+l+l+l+l+l+l+l+l+U+[+[+[+C@) J B *.D 6 = M M b ",
"! e   A B J -@[+t+S+D@l+l+l+l+l+l+l+l+l+l+l+l+R+[+[+S+6@j+j+j+j+j+b@[+[+[+T+l+l+l+l+l+l+l+l+l+l+l+U+S+S+[+O+X o W @ o.G b q 6 ..",
"8 I (.W b.E@F@[+~@G@H@I@J@l+l+l+l+l+l+l+l+l+l+>@>@m+[+K@L@M@j+[@L@N@[+O@>@o@l+l+l+l+l+l+l+l+l+P@I@Q@G@R@[+=@2 c.v &.1 t < /.u v ",
"S@&.  z u i X+[+T@j+U@[+c+l+l+l+l+l+l+l+l+l+l+l+l+m+[+[+[+n+j+V@[+[+[+p+l+l+l+l+l+l+l+l+l+l+l+q+[+W@j+|@t+X@z J d., p ; u.-.# b.",
"  M E &.< < P+[+Y@a+e@[+R+Z@Z@Z@Z@Z@Z@Z@Z@Z@Z@Z@Z@[+[+[+[+`@a+ #[+[+[+.#Z@Z@Z@Z@Z@Z@Z@Z@Z@Z@Z@m+[++#a+@#[+##! J.. ^ d W q ].# ~.",
"]./ b , 4.p.$#[+[+[+[+[+[+[+[+[+[+[+[+[+[+[+[+[+[+[+[+[+[+[+[+[+[+[+[+[+[+[+[+[+[+[+[+[+[+[+[+[+[+[+[+[+[+O+/ S@1 0 M W - ).>.>.",
"J 2 B i n   %#&#*#=#-#;#>#,#'#)#!#*#~#{#]#^#)#/#(#_#:#<#[#*#}#|#1#2#3#4#2#(#:#5#6#7#8#&#9#0#:#a#)#b#c#)#d#e#i % : Z u N ; o ;.o ",
"n ^ u.2.S R c = ,.n } v $.s n c.S@M ].Y W P d ^.I (.G , g j T q + (.e ! d = K (.W 5 W ~.r 0 s d.4 ! } T %.u.= o u / 6 +.[.=.B f#",
"^ K q q G ].] z t s * /.c Q q z E@d.- S } 6 n !.p @.t.` g ].F.> z J B 8 2 o E =.$.g#@ N ~ < k g 1 N.v [ ' S g @.$ C p.q S W+~ g ",
"/.g ~ J.$.9 1 R W e 2 M 2 0 q > ].F 5 c.B +.R 1 G $ _.  g G q < q T o w x o > *.k ] T   f#<.4 M z.T D 8 y 1 V h#W   q i#< k w [ ",
"M 2 * v q ].n.} x < ) (   5 r I ; f#^ /.- L.6.E.d J @ ~ t.w j#t e ] ` ! ! - ).I R k Q Z ; - :./ 5 V ~ c E w.I ].{ z } O g T 4 q ",
"{ (.6 $ ).q $ !.O O % i ].w z #.Z D d Z % D / 2 6.2 > Q D - o 2 = g o.% /.- 5 y.P ` <., y g b m 0 3 y q a   n k#I 1 6 u = S , ~ ",
"g / o 9.4.9 < b.].  { ' E = q Q ].o.L k F n I R j W ~ G c c.o C * z ).= 1 <.x z F j [ 8 O u ).o.^ @ - m < ^ > o 0 C n.).].[ 0 &.",
",.l#(.R (.G F } * n X F j#, (.* K ;.r M 9 m / (.%.T c a t.p u ].b 6.9 $ ^ ! /.#.(.y 1.^ { ].; z s /.= * l k 0 ].=   m ;.8 u t V ",
">.C._ M $.M T.).  V ; *.R H _.~ m#j { } n#t o#E 0 / 1 ; 6 v G 6 G > N 5@O p B . W 9 u./.z - . r ).  x 8.b /.o.M J &.E , , 0   6 ",
"/ < K * / J o O.W V g P t.t u.D ,   S @ @ q G i m g F.2 1 [ v q J 7 9 ).p#< o.~.~ q g } 2 p !.1 W m M.%.{ u ~ ~ ]./ ^   % S.n b ",
"q#( ).4 @./ [ ! - g -.9.{ $.].% J 6 $.m.C V g.q E J % l - w z < T c >.W < g *   Q ; q.< ! J r - q $.g g.q ~ p E J a $.'   M $ ; ",
"j e.~ /.{   Z 7 $ k / ^ i !.b g S p G / { F 2 % z B F Z K.<.n V F b s r#V < F V } m p 2 y.- m.Q M q ^ V . < %.w n -.( / j ( 1 b ",
"D 2.g 6 - e.M = ].y w , x o.$.n.} r < { m.o.T N i -.w !.% P g !.6 O |.2 ).J > 0 n d.F.D g = T u I >.H E r S ~ } ]., > 2 / q n g ",
"p } = l   ; - c.t W * ( 8 6 2 > N g g * $.~ $ < M   6   g s#0.(., <.$.@.x ( p @ P b W + c.@ ^ G 1 @.3.M p u.' E@h G - m @.T = D ",
"/ 1 6 *   ! D l @.{ ^ /.g # c.g B 7 q - C G A / !.d 2 - ( 8 4 { f % B ! 2 , W 8 o.! g a - ).` ].< = w &.L $ # @.t#@.` J w f#E @.",
"< 6 * q d.B (.K , u#t _ p ).; ; 0.2 !.d.E@K 2 2 - / { 6 x.Q 8 o./.J X 0 K 5 d.; - e.S $ z y.L $ n F m I @ d u.o j#M 6 5 t N s # ",
"{ M J 8 I q D ! $.$ $ 4.! % c.J g b.!.! S@v#o.~ o - u c.2 Z Y +.; , 9 o w#m.z b i r K m ( Q 6 / 8 ' @., 1 4.* x#u < >.p y#<   5@",
"q i w ~ c.( > 2   g - 0 T g ].' ].J ~.F * / D A 4 u.D ].b g.g z#E T > ].4 :.  p i ( ~.b.Q w g d ].T $ / 7 , ^ { c.r p#O +.X A#< ",
"< S 5 8 e i ~ R z < - 6 . m E t W 4 >.c +.!.[ n.P 2 e.N.b &.J *.J C E.n.^ - T   ..I m ~.6 =.M L.G ~ f.* t u &.W u / g m : ].6._.",
"% (.~ i B#* ! 2 ! i p v ^ F @.@ 6 C#{ , / t r J 9 e @.O L , 1 q B 7 v K b Z ! s ].(.` = G ;.8 @ a s s F.; J 6 8 b 2 O ` J w d.>.",
"q V 1 m I 8 6 p n.O F D#J = 6 J { 4 u.E#Z 8 m / ;.` N n , { I   2 < W / z F.u = 9 u.F @ m ).@.; Z $ b ^ ~.~ < ..! o O g.{ q O M ",
"J #.*.E@/.o.i c./ D ^ @ d.M b.(.m @ 8 Z ; g , - E M C s ! E +   I L g F#x E 0 ; b ; -.J { S.=./ J ].G P...; M T { % Z T < { S 5 "};
